<svg xmlns="http://www.w3.org/2000/svg"
  style="transform: none; transform-origin: 50% 50%; cursor: move; max-height: 333.7px;" width="16"
  height="16" viewBox="0 0 400 400">
  <g id="l1UUNhaXUqNugPYhGFydwWg" fill="transparent" style="transform: none;">
    <g style="transform: none;">
      <path id="p16aMIqvM1"
        d="M0 200 l0 -200 200 0 200 0 0 200 0 200 -200 0 -200 0 0 -200z m260 77 c26 -23 50 -67 50 -93 0 -8 -9 -24 -20 -36 -11 -12 -20 -27 -20 -34 0 -12 -43 -24 -86 -24 -13 0 -24 4 -24 8 0 5 -11 14 -24 21 -53 29 -49 120 7 158 41 28 85 28 117 0z"></path>
    </g>
  </g>
  <g id="l39xL7JUqiAwUOrz3CUpETA" fill="rgb(247,149,149)" style="transform: none;">
    <g style="transform: none;">
      <path id="pCkztC9y7"
        d="M248 358 c-2 -19 -9 -23 -42 -23 -22 0 -41 5 -43 13 -8 19 -23 14 -23 -8 0 -10 -9 -24 -20 -30 -11 -6 -20 -19 -20 -30 0 -10 -4 -22 -10 -25 -5 -3 -10 -31 -10 -61 0 -53 0 -54 30 -54 17 0 30 -4 30 -10 0 -5 -13 -10 -30 -10 -37 0 -38 -12 -4 -30 19 -11 24 -20 21 -37 -5 -26 17 -32 30 -8 11 19 56 8 49 -12 -8 -20 2 -33 19 -27 10 4 13 14 9 29 -4 17 0 24 16 28 29 8 50 -1 43 -19 -7 -18 21 -19 35 -1 9 10 6 17 -8 30 -17 14 -18 20 -8 37 14 22 34 26 40 8 5 -15 28 -1 28 18 0 8 -9 14 -21 14 -16 0 -20 5 -17 28 3 23 7 27 31 25 24 -2 28 2 25 20 -2 18 -9 21 -34 19 -38 -4 -58 26 -24 35 21 6 27 28 9 38 -6 4 -17 -1 -24 -11 -13 -18 -15 -18 -37 4 -22 22 -22 24 -4 37 21 16 13 35 -14 35 -12 0 -20 -8 -22 -22z"></path>
    </g>
  </g>
  <g id="l5ueec5PH8QAVReeaoTHELO" fill="rgb(242,119,119)" style="transform: none;">
    <g style="transform: none;">
      <path id="pg0Tnz4nX"
        d="M124 385 c-18 -14 -18 -16 -1 -26 24 -14 21 -34 -10 -54 -24 -16 -27 -16 -38 -1 -13 18 -35 22 -35 6 0 -5 0 -12 0 -15 0 -3 2 -4 3 -2 2 1 11 -4 20 -11 12 -11 13 -19 5 -43 -9 -27 -14 -29 -40 -24 -27 6 -29 5 -26 -17 2 -18 8 -22 29 -20 22 3 29 -2 38 -28 9 -28 8 -33 -9 -37 -24 -6 -25 -16 -6 -32 11 -10 16 -9 24 5 7 13 13 14 31 5 21 -12 30 -51 11 -51 -5 0 -10 -7 -10 -15 0 -8 8 -15 19 -15 22 0 35 38 19 57 -6 8 -9 14 -7 16 2 1 13 7 24 13 27 15 31 41 9 65 -11 13 -24 17 -40 13 -20 -5 -24 -2 -24 19 0 13 7 30 15 37 9 7 13 20 10 28 -3 8 4 25 16 38 16 17 19 28 13 46 -4 12 -7 28 -6 35 4 19 -14 23 -34 8z"></path>
      <path id="p2RAWOjuS" d="M175 242 c-15 -11 -15 -40 0 -46 18 -6 39 20 31 39 -6 16 -16 19 -31 7z"></path>
      <path id="pvJGeUS7C"
        d="M243 133 c-7 -2 -13 -11 -13 -20 0 -21 44 -13 48 10 3 17 -10 21 -35 10z"></path>
    </g>
  </g>
</svg>